<svg width="800" height="400" viewBox="0 0 800 400" fill="none" xmlns="http://www.w3.org/2000/svg">
  <rect width="800" height="400" fill="#1a1a1a"/>

  <!-- Browser mockup -->
  <rect x="150" y="60" width="500" height="300" rx="12" fill="#2a2a2a" stroke="#404040" stroke-width="2"/>
  <rect x="150" y="60" width="500" height="40" rx="12" fill="#333333"/>
  <rect x="150" y="88" width="500" height="12" fill="#333333"/>

  <!-- Browser dots -->
  <circle cx="175" cy="80" r="6" fill="#ff5f57"/>
  <circle cx="195" cy="80" r="6" fill="#febc2e"/>
  <circle cx="215" cy="80" r="6" fill="#28c840"/>

  <!-- URL bar -->
  <rect x="240" y="70" width="300" height="20" rx="4" fill="#404040"/>

  <!-- PalanK logo -->
  <rect x="60" y="140" width="60" height="60" rx="12" fill="#FF5A36"/>
  <text x="90" y="180" font-family="system-ui" font-size="24" font-weight="bold" fill="white" text-anchor="middle">P</text>

  <!-- Connection line -->
  <path d="M120 170 L150 170" stroke="#FF5A36" stroke-width="3" stroke-dasharray="5,5"/>

  <!-- AI spark -->
  <circle cx="90" cy="240" r="20" fill="#FF5A36" opacity="0.3"/>
  <text x="90" y="246" font-family="system-ui" font-size="16" fill="#FF5A36" text-anchor="middle">AI</text>

  <!-- Content placeholder -->
  <rect x="180" y="130" width="200" height="12" rx="2" fill="#505050"/>
  <rect x="180" y="150" width="150" height="12" rx="2" fill="#505050"/>
  <rect x="180" y="180" width="440" height="8" rx="2" fill="#404040"/>
  <rect x="180" y="195" width="400" height="8" rx="2" fill="#404040"/>
  <rect x="180" y="210" width="420" height="8" rx="2" fill="#404040"/>

  <!-- Button highlight -->
  <rect x="180" y="250" width="100" height="32" rx="6" fill="#FF5A36"/>
  <text x="230" y="271" font-family="system-ui" font-size="12" font-weight="600" fill="white" text-anchor="middle">Click me</text>

  <!-- Cursor -->
  <path d="M270 275 L280 295 L285 285 L295 290 L285 275 L270 275Z" fill="#FF5A36"/>

  <!-- Tagline -->
  <text x="400" y="385" font-family="system-ui" font-size="14" fill="#999" text-anchor="middle">AI-Powered Browser Automation</text>
</svg>
