<svg width="800" height="300" viewBox="0 0 800 300" fill="none" xmlns="http://www.w3.org/2000/svg">
  <rect width="800" height="300" fill="#1a1a1a"/>

  <!-- Browser mockup -->
  <rect x="200" y="30" width="400" height="240" rx="12" fill="#2a2a2a" stroke="#404040" stroke-width="2"/>
  <rect x="200" y="30" width="400" height="36" rx="12" fill="#333333"/>
  <rect x="200" y="58" width="400" height="8" fill="#333333"/>

  <!-- Browser dots -->
  <circle cx="222" cy="48" r="5" fill="#ff5f57"/>
  <circle cx="240" cy="48" r="5" fill="#febc2e"/>
  <circle cx="258" cy="48" r="5" fill="#28c840"/>

  <!-- URL bar -->
  <rect x="280" y="40" width="240" height="16" rx="4" fill="#404040"/>

  <!-- Content placeholder -->
  <rect x="225" y="90" width="160" height="10" rx="2" fill="#505050"/>
  <rect x="225" y="108" width="120" height="10" rx="2" fill="#505050"/>
  <rect x="225" y="135" width="350" height="6" rx="2" fill="#404040"/>
  <rect x="225" y="148" width="320" height="6" rx="2" fill="#404040"/>
  <rect x="225" y="161" width="340" height="6" rx="2" fill="#404040"/>

  <!-- Button -->
  <rect x="225" y="190" width="80" height="26" rx="6" fill="#FF5A36"/>
  <text x="265" y="208" font-family="system-ui" font-size="11" font-weight="600" fill="white" text-anchor="middle">Click me</text>

  <!-- Cursor -->
  <path d="M295 210 L305 230 L310 220 L320 225 L310 210 L295 210Z" fill="#FF5A36"/>

  <!-- AI Glow -->
  <circle cx="120" cy="150" r="40" fill="#FF5A36" opacity="0.2"/>
  <circle cx="120" cy="150" r="25" fill="#FF5A36" opacity="0.3"/>
  <text x="120" y="156" font-family="system-ui" font-size="14" font-weight="bold" fill="#FF5A36" text-anchor="middle">AI</text>

  <!-- Connection -->
  <path d="M145 150 L200 150" stroke="#FF5A36" stroke-width="2" stroke-dasharray="6,4" opacity="0.6"/>
</svg>
